<svg xmlns="http://www.w3.org/2000/svg" viewBox="0 0 1024 1024">
<rect width="1024" height="1024" rx="224" fill="#12121f"/>
<rect x="129" y="404" width="62" height="216" rx="31.0" fill="#8b5cf6"/>
<rect x="217" y="325" width="62" height="374" rx="31.0" fill="#975aea"/>
<rect x="305" y="231" width="62" height="562" rx="31.0" fill="#a357df" fill-opacity="0.37"/>
<rect x="305" y="274" width="62" height="475" rx="31.0" fill="#a357df"/>
<rect x="393" y="170" width="62" height="684" rx="31.0" fill="#af54d3" fill-opacity="0.37"/>
<rect x="393" y="274" width="62" height="475" rx="31.0" fill="#af54d3"/>
<rect x="481" y="152" width="62" height="720" rx="31.0" fill="#bc52c8" fill-opacity="0.37"/>
<rect x="481" y="274" width="62" height="475" rx="31.0" fill="#bc52c8"/>
<rect x="569" y="181" width="62" height="662" rx="31.0" fill="#c850bc" fill-opacity="0.37"/>
<rect x="569" y="274" width="62" height="475" rx="31.0" fill="#c850bc"/>
<rect x="657" y="246" width="62" height="533" rx="31.0" fill="#d44db0" fill-opacity="0.37"/>
<rect x="657" y="274" width="62" height="475" rx="31.0" fill="#d44db0"/>
<rect x="745" y="332" width="62" height="360" rx="31.0" fill="#e04aa5"/>
<rect x="833" y="397" width="62" height="230" rx="31.0" fill="#ec4899"/>
<rect x="99" y="242" width="826" height="20" rx="10" fill="#ececf6"/>
<rect x="99" y="762" width="826" height="20" rx="10" fill="#ececf6"/>
</svg>
